{
  "source": "C:\\Users\\Peter\\Desktop\\stuff\\MIUN\\quantitative_research\\video_compression\\videos\\HEVC_CLASS_B\\Kimono_1920x1080_24.y4m",
  "output": "C:\\Users\\Peter\\Desktop\\stuff\\MIUN\\quantitative_research\\video_compression\\compressed_videos\\HEVC_CLASS_B\\vp9\\2.5\\Kimono_1920x1080_24_vp9.webm",
  "codec": "vp9",
  "ok": "Input #0, yuv4mpegpipe, from 'C:\\Users\\Peter\\Desktop\\stuff\\MIUN\\quantitative_research\\video_compression\\videos\\HEVC_CLASS_B\\Kimono_1920x1080_24.y4m':\n  Duration: 00:00:10.00, start: 0.000000, bitrate: 597198 kb/s\n  Stream #0:0: Video: rawvideo (I420 / 0x30323449), yuv420p(progressive), 1920x1080, 24 fps, 24 tbr, 24 tbn\n[out#0/webm @ 000002cc1da19b00] Codec AVOption b:a (set bitrate (in bits/s)) has not been used for any stream. The most likely reason is either wrong type (e.g. a video option with no video streams) or that it is a private option of some decoder which was not actually used for any stream.\nStream mapping:\n  Stream #0:0 -> #0:0 (rawvideo (native) -> vp9 (libvpx-vp9))\nPress [q] to stop, [?] for help\n[libvpx-vp9 @ 000002cc1da1bf40] v1.15.2-100-g40561f514\nOutput #0, webm, to 'C:\\Users\\Peter\\Desktop\\stuff\\MIUN\\quantitative_research\\video_compression\\compressed_videos\\HEVC_CLASS_B\\vp9\\2.5\\Kimono_1920x1080_24_vp9.webm':\n  Metadata:\n    encoder         : Lavf62.3.100\n  Stream #0:0: Video: vp9, yuv420p(tv, progressive), 1920x1080, q=2-31, 2500 kb/s, 24 fps, 1k tbn\n    Metadata:\n      encoder         : Lavc62.11.100 libvpx-vp9\n    Side data:\n      cpb: bitrate max/min/avg: 0/0/0 buffer size: 2500000 vbv_delay: N/A\nframe=    1 fps=0.0 q=15.0 size=       0KiB time=00:00:00.04 bitrate=  92.5kbits/s speed=0.0815x elapsed=0:00:00.51    \nframe=    7 fps=6.8 q=50.0 size=       0KiB time=00:00:00.29 bitrate=  13.2kbits/s speed=0.284x elapsed=0:00:01.02    \nframe=   12 fps=7.7 q=48.0 size=       0KiB time=00:00:00.50 bitrate=   7.7kbits/s speed=0.321x elapsed=0:00:01.55    \nframe=   17 fps=8.2 q=47.0 size=       0KiB time=00:00:00.70 bitrate=   5.4kbits/s speed=0.341x elapsed=0:00:02.07    \nframe=   20 fps=7.7 q=47.0 size=       0KiB time=00:00:00.83 bitrate=   4.6kbits/s speed=0.32x elapsed=0:00:02.60    \nframe=   26 fps=8.3 q=45.0 size=       0KiB time=00:00:01.08 bitrate=   3.6kbits/s speed=0.347x elapsed=0:00:03.11    \nframe=   30 fps=8.2 q=45.0 size=       0KiB time=00:00:01.25 bitrate=   3.1kbits/s speed=0.342x elapsed=0:00:03.65    \nframe=   35 fps=8.4 q=45.0 size=       0KiB time=00:00:01.45 bitrate=   2.6kbits/s speed=0.348x elapsed=0:00:04.18    \nframe=   40 fps=8.5 q=46.0 size=       0KiB time=00:00:01.66 bitrate=   2.3kbits/s speed=0.355x elapsed=0:00:04.68    \nframe=   45 fps=8.6 q=44.0 size=       0KiB time=00:00:01.87 bitrate=   2.1kbits/s speed=0.358x elapsed=0:00:05.23    \nframe=   49 fps=8.5 q=44.0 size=       0KiB time=00:00:02.04 bitrate=   1.9kbits/s speed=0.354x elapsed=0:00:05.76    \nframe=   54 fps=8.6 q=45.0 size=       0KiB time=00:00:02.25 bitrate=   1.7kbits/s speed=0.358x elapsed=0:00:06.28    \nframe=   58 fps=8.5 q=45.0 size=       0KiB time=00:00:02.41 bitrate=   1.6kbits/s speed=0.356x elapsed=0:00:06.79    \nframe=   63 fps=8.6 q=42.0 size=       0KiB time=00:00:02.62 bitrate=   1.5kbits/s speed=0.359x elapsed=0:00:07.32    \nframe=   67 fps=8.5 q=42.0 size=       0KiB time=00:00:02.79 bitrate=   1.4kbits/s speed=0.356x elapsed=0:00:07.85    \nframe=   72 fps=8.6 q=44.0 size=       0KiB time=00:00:03.00 bitrate=   1.3kbits/s speed=0.359x elapsed=0:00:08.36    \nframe=   76 fps=8.5 q=44.0 size=       0KiB time=00:00:03.16 bitrate=   1.2kbits/s speed=0.356x elapsed=0:00:08.89    \nframe=   81 fps=8.6 q=32.0 size=       0KiB time=00:00:03.37 bitrate=   1.1kbits/s speed=0.358x elapsed=0:00:09.42    \nframe=   86 fps=8.6 q=44.0 size=       0KiB time=00:00:03.58 bitrate=   1.1kbits/s speed=0.36x elapsed=0:00:09.94    \nframe=   91 fps=8.7 q=44.0 size=       0KiB time=00:00:03.79 bitrate=   1.0kbits/s speed=0.362x elapsed=0:00:10.48    \nframe=   96 fps=8.7 q=43.0 size=       0KiB time=00:00:04.00 bitrate=   1.0kbits/s speed=0.363x elapsed=0:00:11.01    \nframe=  100 fps=8.7 q=43.0 size=       0KiB time=00:00:04.16 bitrate=   0.9kbits/s speed=0.361x elapsed=0:00:11.52    \nframe=  104 fps=8.6 q=43.0 size=       0KiB time=00:00:04.33 bitrate=   0.9kbits/s speed=0.359x elapsed=0:00:12.05    \nframe=  109 fps=8.7 q=40.0 size=       0KiB time=00:00:04.54 bitrate=   0.8kbits/s speed=0.361x elapsed=0:00:12.57    \nframe=  114 fps=8.7 q=41.0 size=       0KiB time=00:00:04.75 bitrate=   0.8kbits/s speed=0.363x elapsed=0:00:13.10    \nframe=  119 fps=8.7 q=42.0 size=       0KiB time=00:00:04.95 bitrate=   0.8kbits/s speed=0.364x elapsed=0:00:13.63    \nframe=  123 fps=8.7 q=43.0 size=    1280KiB time=00:00:05.12 bitrate=2046.0kbits/s speed=0.362x elapsed=0:00:14.15    \nframe=  127 fps=8.7 q=42.0 size=    1280KiB time=00:00:05.29 bitrate=1981.6kbits/s speed=0.361x elapsed=0:00:14.67    \nframe=  132 fps=8.7 q=43.0 size=    1280KiB time=00:00:05.50 bitrate=1906.5kbits/s speed=0.362x elapsed=0:00:15.18    \nframe=  137 fps=8.7 q=39.0 size=    1280KiB time=00:00:05.70 bitrate=1836.9kbits/s speed=0.363x elapsed=0:00:15.71    \nframe=  142 fps=8.7 q=53.0 size=    1280KiB time=00:00:05.91 bitrate=1772.2kbits/s speed=0.364x elapsed=0:00:16.24    \nframe=  146 fps=8.7 q=38.0 size=    1280KiB time=00:00:06.08 bitrate=1723.7kbits/s speed=0.363x elapsed=0:00:16.77    \nframe=  151 fps=8.7 q=34.0 size=    1280KiB time=00:00:06.29 bitrate=1666.6kbits/s speed=0.364x elapsed=0:00:17.30    \nframe=  156 fps=8.8 q=36.0 size=    1280KiB time=00:00:06.50 bitrate=1613.2kbits/s speed=0.365x elapsed=0:00:17.82    \nframe=  161 fps=8.8 q=35.0 size=    1280KiB time=00:00:06.70 bitrate=1563.1kbits/s speed=0.365x elapsed=0:00:18.37    \nframe=  165 fps=8.7 q=20.0 size=    1280KiB time=00:00:06.87 bitrate=1525.2kbits/s speed=0.364x elapsed=0:00:18.88    \nframe=  171 fps=8.8 q=34.0 size=    1280KiB time=00:00:07.12 bitrate=1471.7kbits/s speed=0.367x elapsed=0:00:19.40    \nframe=  174 fps=8.7 q=35.0 size=    1280KiB time=00:00:07.25 bitrate=1446.3kbits/s speed=0.364x elapsed=0:00:19.93    \nframe=  180 fps=8.8 q=33.0 size=    1280KiB time=00:00:07.50 bitrate=1398.1kbits/s speed=0.367x elapsed=0:00:20.44    \nframe=  184 fps=8.8 q=35.0 size=    1280KiB time=00:00:07.66 bitrate=1367.7kbits/s speed=0.366x elapsed=0:00:20.97    \nframe=  190 fps=8.8 q=32.0 size=    1280KiB time=00:00:07.91 bitrate=1324.5kbits/s speed=0.368x elapsed=0:00:21.50    \nframe=  194 fps=8.8 q=33.0 size=    1280KiB time=00:00:08.08 bitrate=1297.2kbits/s speed=0.367x elapsed=0:00:22.03    \nframe=  200 fps=8.9 q=32.0 size=    1280KiB time=00:00:08.33 bitrate=1258.3kbits/s speed=0.369x elapsed=0:00:22.56    \nframe=  204 fps=8.8 q=32.0 size=    1280KiB time=00:00:08.50 bitrate=1233.6kbits/s speed=0.368x elapsed=0:00:23.08    \nframe=  210 fps=8.9 q=30.0 size=    1280KiB time=00:00:08.75 bitrate=1198.4kbits/s speed=0.37x elapsed=0:00:23.62    \nframe=  214 fps=8.9 q=31.0 size=    1280KiB time=00:00:08.91 bitrate=1176.0kbits/s speed=0.369x elapsed=0:00:24.14    \nframe=  216 fps=8.8 q=30.0 size=    1280KiB time=00:00:09.00 bitrate=1165.1kbits/s speed=0.365x elapsed=0:00:24.66    \nframe=  216 fps=8.6 q=30.0 size=    1280KiB time=00:00:09.00 bitrate=1165.1kbits/s speed=0.357x elapsed=0:00:25.17    \nframe=  216 fps=8.4 q=30.0 size=    1280KiB time=00:00:09.00 bitrate=1165.1kbits/s speed=0.35x elapsed=0:00:25.70    \nframe=  216 fps=8.2 q=30.0 size=    1280KiB time=00:00:09.00 bitrate=1165.1kbits/s speed=0.343x elapsed=0:00:26.22    \n[out#0/webm @ 000002cc1da19b00] video:2944KiB audio:0KiB subtitle:0KiB other streams:0KiB global headers:0KiB muxing overhead: 0.075165%\nframe=  240 fps=9.0 q=27.0 Lsize=    2946KiB time=00:00:10.00 bitrate=2413.6kbits/s speed=0.374x elapsed=0:00:26.72    \n",
  "seconds": 26.84853982925415,
  "probe_out": {}
}